<svg viewBox="0 0 100 100" xmlns="http://www.w3.org/2000/svg">
    <path fill="#E1E1E1" d="M0 0h100v100H0z"/>
    <path fill="#FFF" d="M21 30.018h5.709v39.819H21zM28.855 30.018h5v39.819h-5zM36.727 30.018h4.291v39.819h-4.291zM44.582 30.018h4.291v39.819h-4.291zM51.727 30.018h4.291v39.819h-4.291zM59.582 30.018h4.291v39.819h-4.291zM66.727 30.018h5v39.819h-5zM73.873 30.018h5v39.819h-5z"/>
    <path fill="#1A8BB3" d="M21 57.041h5.709v12.796H21zM28.855 49.928h5v19.91h-5zM36.727 41.403h4.291v28.452h-4.291zM44.582 34.995h4.291v34.842h-4.291zM51.727 37.837h4.291v32h-4.291zM59.582 41.403h4.291v28.452h-4.291zM66.727 48.516h5v21.339h-5zM73.873 55.629h5v14.226h-5z"/>
</svg>
